<?xml version="1.0" encoding="utf-8"?>
<!-- Generator: Adobe Illustrator 23.0.6, SVG Export Plug-In . SVG Version: 6.00 Build 0)  -->
<svg version="1.0" id="Layer_1" xmlns="http://www.w3.org/2000/svg" xmlns:xlink="http://www.w3.org/1999/xlink" x="0px" y="0px"
	 viewBox="0 0 560 670" style="enable-background:new 0 0 560 670;" xml:space="preserve">
<style type="text/css">
	.st0{fill:#03502B;}
	.st1{fill:#1ED47E;}
</style>
<path class="st0" d="M479,614.9c0-14.3,11.7-26,26-26h29c14.3,0,26-11.7,26-26v-461c0-14.3-11.7-26-26-26H295c-14.3,0-26-11.7-26-26
	V26c0-14.3-11.7-26-26-26H26C11.7,0,0,11.7,0,26v618c0,14.3,11.7,26,26,26h427c14.3,0,26-11.7,26-26V614.9z"/>
<g>
	<path class="st1" d="M557.3,32.1c0,15.4-12.6,28-28,28H313.5c-15.4,0-28-12.6-28-28v-1.7c0-15.4,12.6-28,28-28h215.7
		c15.4,0,28,12.6,28,28V32.1z"/>
</g>
</svg>
